<svg width="23" height="22" viewBox="0 0 23 22" fill="none" xmlns="http://www.w3.org/2000/svg">
<path d="M17.9593 0H5.0512C3.97339 0.000861279 2.93996 0.440381 2.17783 1.22205C1.4157 2.00373 0.987168 3.06366 0.986328 4.16911V17.4114C0.987168 18.5168 1.4157 19.5768 2.17783 20.3584C2.93996 21.1401 3.97339 21.5796 5.0512 21.5805H17.9593C19.0374 21.5796 20.0711 21.1402 20.8338 20.3586C21.5964 19.5771 22.0256 18.5171 22.0273 17.4114V4.16911C22.0256 3.06336 21.5964 2.00343 20.8338 1.22185C20.0711 0.440275 19.0374 0.000859836 17.9593 0ZM19.1261 2.4878H19.5922V6.14634H16.0378V2.4878H19.1261ZM8.28218 8.93658C8.35015 8.81247 8.42423 8.692 8.50413 8.57561C8.84642 8.08643 9.29718 7.68771 9.81926 7.41235C10.3413 7.13699 10.9198 6.99287 11.5068 6.99187C12.0939 6.99287 12.6723 7.13699 13.1944 7.41235C13.7164 7.68771 14.1672 8.08643 14.5095 8.57561C14.5905 8.69123 14.6646 8.81177 14.7314 8.93658C15.0441 9.50185 15.209 10.1404 15.2102 10.7902C15.2094 11.7974 14.8189 12.763 14.1246 13.4751C13.4303 14.1873 12.4888 14.5878 11.5068 14.5886C10.5249 14.5878 9.58337 14.1873 8.88903 13.4751C8.19469 12.763 7.80424 11.7974 7.8034 10.7902C7.80466 10.1404 7.96958 9.50185 8.28218 8.93658ZM19.9758 9.69431V17.4114C19.975 17.9597 19.7623 18.4852 19.3843 18.8729C19.0063 19.2606 18.4938 19.4788 17.9593 19.4797H5.0512C4.51718 19.478 4.00555 19.2594 3.62824 18.8718C3.25092 18.4842 3.03862 17.9591 3.03779 17.4114V8.57561H6.17681C6.09784 8.77415 6.03008 8.9772 5.97389 9.18374C5.8283 9.70616 5.75466 10.2469 5.75511 10.7902C5.75678 12.3543 6.3633 13.8538 7.44159 14.9597C8.51989 16.0656 9.98188 16.6877 11.5068 16.6894C13.0317 16.6877 14.4937 16.0656 15.572 14.9597C16.6503 13.8538 17.2568 12.3543 17.2585 10.7902C17.259 10.2469 17.1853 9.70616 17.0397 9.18374C16.981 8.97761 16.9123 8.77464 16.8336 8.57561H19.9885L19.9758 9.69431Z" fill="white"/>
</svg>
