<svg width="23" height="18" viewBox="0 0 23 18" fill="none" xmlns="http://www.w3.org/2000/svg">
<path d="M21.4505 0.684334C20.6013 1.19425 19.6739 1.55273 18.7078 1.7445C18.3007 1.30825 17.8114 0.961369 17.2696 0.724905C16.7278 0.48844 16.1449 0.367322 15.5561 0.368896C14.4205 0.360237 13.3281 0.814393 12.5189 1.63154C11.7097 2.44869 11.2499 3.56194 11.2407 4.72661C11.2416 5.05507 11.2788 5.38238 11.3517 5.70222C9.64165 5.61909 7.96727 5.17129 6.43538 4.38739C4.9035 3.60349 3.54775 2.5007 2.45462 1.14937C2.07063 1.81267 1.868 2.56983 1.86804 3.34124C1.86982 4.0617 2.04639 4.77038 2.38183 5.40339C2.71727 6.0364 3.20103 6.57384 3.7895 6.96726C3.10589 6.9461 2.43676 6.76005 1.83633 6.42418V6.4762C1.83584 7.01746 1.93592 7.55385 2.13121 8.05669C2.39804 8.74197 2.82804 9.34774 3.38192 9.81869C3.9358 10.2896 4.59591 10.6107 5.30194 10.7526C4.93043 10.8532 4.54788 10.9046 4.16365 10.9055C3.89117 10.905 3.61936 10.8778 3.35194 10.8242C3.63421 11.6954 4.17383 12.455 4.89595 12.9975C5.61807 13.54 6.48691 13.8386 7.38194 13.8518C5.84744 15.0671 3.96213 15.7238 2.0234 15.7185C1.67795 15.7193 1.33276 15.6987 0.989746 15.6567C2.97184 16.9371 5.26776 17.6138 7.61024 17.6079C14.3576 17.6079 18.5049 12.8144 19.5988 7.85181C19.7906 6.98862 19.8885 6.10626 19.8905 5.22092C19.8905 5.03556 19.8905 4.84369 19.8905 4.65833C20.7321 4.04296 21.46 3.27871 22.0402 2.40142C21.2528 2.75561 20.4181 2.98689 19.5639 3.08759C20.4557 2.54723 21.1261 1.69328 21.4505 0.684334Z" fill="white"/>
</svg>
